<svg xmlns="http://www.w3.org/2000/svg" width="16" height="16" viewBox="0 0 16 16">
    <g fill-rule="evenodd" transform="translate(0 2)">
        <path d="M2.42249122,1.97381425e-15 L10.4989589,0 L8.86956522,2.70833333 L3.12692296,2.70833333 L3.12692296,2.70833333 C2.7446644,2.70833333 2.43478261,3.01821512 2.43478261,3.40047368 L2.43478261,8.87730409 L2.43478261,8.87730409 C2.43478261,9.25956265 2.7446644,9.56944444 3.12692296,9.56944444 L6.88730027,9.56944444 L4.86956522,12.9219296 L4.86956522,12.2777778 L2.42249122,12.2777778 L2.42249122,12.2777778 C1.08458626,12.2777778 7.56330272e-15,11.1931915 7.99360578e-15,9.85528655 L7.10542736e-15,2.42249122 L7.54951657e-15,2.42249122 C7.38567046e-15,1.08458626 1.08458626,2.91030441e-15 2.42249122,2.66453526e-15 Z"/>
        <path d="M11.1321265,5.81263432e-14 L13.5775088,5.75147494e-14 L13.5775088,5.68434189e-14 C14.9154137,5.65976497e-14 16,1.08458626 16,2.42249122 L16,9.85528655 L16,9.85528655 C16,11.1931915 14.9154137,12.2777778 13.5775088,12.2777778 L6.26086957,12.2777778 L5.52209501,12.8947022 L7.52372783,9.56944444 L12.699164,9.56944444 L12.699164,9.56944444 C13.0814226,9.56944444 13.3913043,9.25956265 13.3913043,8.87730409 L13.3913043,3.40047368 L13.3913043,3.40047368 C13.3913043,3.01821512 13.0814226,2.70833333 12.699164,2.70833333 L9.50260859,2.70833333 L11.1321265,5.81263432e-14 Z"/>
        <rect width="7.826" height="1" x="4" y="4.153"/>
        <rect width="7.826" height="1" x="4" y="5.868"/>
        <rect width="7.826" height="1" x="4" y="7.583"/>
    </g>
</svg>
