<?xml version="1.0" encoding="UTF-8"?>
<svg width="251px" height="63px" viewBox="0 0 251 63" version="1.1" xmlns="http://www.w3.org/2000/svg"
>
    <!-- Generator: Sketch 48.2 (47327) - http://www.bohemiancoding.com/sketch -->
    <title>cc-logo-white</title>
    <desc>Created with Sketch.</desc>
    <defs></defs>
    <g id="CC-Logo-White" stroke="none" stroke-width="1" fill="none" fill-rule="evenodd">
        <g id="icon" fill="#FFFFFF">
            <path d="M12.25,0 L52.8228872,0 L44.625,13.125 L15.75,13.125 C13.8170034,13.125 12.25,14.6920034 12.25,16.625 L12.25,42.875 C12.25,44.8079966 13.8170034,46.375 15.75,46.375 L34.6517295,46.375 L24.5,62.6216588 L24.5,59.5 L12.25,59.5 C5.48451181,59.5 8.28533345e-16,54.0154882 0,47.25 L1.77635684e-15,12.25 C9.47823494e-16,5.48451181 5.48451181,-5.33556822e-16 12.25,-1.77635684e-15 Z"
                  id="Rectangle-3"></path>
            <path d="M56.0085113,6.21724894e-15 L68.25,0 C75.0154882,-7.25176062e-15 80.5,5.48451181 80.5,12.25 L80.5,47.25 C80.5,54.0154882 75.0154882,59.5 68.25,59.5 L31.5,59.5 L27.7830405,62.4897105 L37.8537557,46.375 L63.875,46.375 C65.8079966,46.375 67.375,44.8079966 67.375,42.875 L67.375,16.625 C67.375,14.6920034 65.8079966,13.125 63.875,13.125 L47.8099995,13.125 L56.0085113,6.21724894e-15 Z"
                  id="Rectangle-3-Copy"></path>
            <rect id="Rectangle-2" x="20.125" y="20.125" width="39.375" height="2.625"></rect>
            <rect id="Rectangle-2-Copy" x="20.125" y="28.4375" width="39.375" height="2.625"></rect>
            <rect id="Rectangle-2-Copy-2" x="20.125" y="36.75" width="39.375" height="2.625"></rect>
        </g>
        <path d="M111.854167,20.4583333 L111.854167,23.375 C111.854167,26.534738 109.059056,28.1145833 103.46875,28.1145833 C97.8784443,28.1145833 95.0833333,26.534738 95.0833333,23.375 L95.0833333,13.1666667 C95.0833333,10.0069286 97.8784443,8.42708333 103.46875,8.42708333 C109.059056,8.42708333 111.854167,10.0069286 111.854167,13.1666667 L111.854167,16.0833333 L106.020833,16.0833333 L106.020833,13.8958333 C106.020833,12.6805495 105.170147,12.0729167 103.46875,12.0729167 C101.524296,12.0729167 100.552083,12.6805495 100.552083,13.8958333 L100.552083,22.6458333 C100.552083,23.8611172 101.524296,24.46875 103.46875,24.46875 C105.170147,24.46875 106.020833,23.8611172 106.020833,22.6458333 L106.020833,20.4583333 L111.854167,20.4583333 Z M126.492917,22.6458333 L126.492917,13.8958333 C126.492917,12.6805495 125.520704,12.0729167 123.57625,12.0729167 C121.631796,12.0729167 120.659583,12.6805495 120.659583,13.8958333 L120.659583,22.6458333 C120.659583,23.8611172 121.631796,24.46875 123.57625,24.46875 C125.520704,24.46875 126.492917,23.8611172 126.492917,22.6458333 Z M131.961667,13.1666667 L131.961667,23.375 C131.961667,26.534738 129.166556,28.1145833 123.57625,28.1145833 C117.985944,28.1145833 115.190833,26.534738 115.190833,23.375 L115.190833,13.1666667 C115.190833,10.0069286 117.985944,8.42708333 123.57625,8.42708333 C129.166556,8.42708333 131.961667,10.0069286 131.961667,13.1666667 Z M135.298333,27.75 L135.298333,8.79166667 L140.767083,8.79166667 L140.767083,11.34375 C140.767083,9.39929583 142.188944,8.42708333 145.032708,8.42708333 C147.876473,8.42708333 149.565692,9.20485333 150.100417,10.7604167 C150.790698,9.20485333 152.774011,8.42708333 156.050417,8.42708333 C159.326822,8.42708333 160.965,10.0069286 160.965,13.1666667 L160.965,27.75 L155.49625,27.75 L155.49625,14.2604167 C155.49625,12.802076 154.71848,12.0729167 153.162917,12.0729167 C151.607353,12.0729167 150.829583,12.802076 150.829583,14.2604167 L150.829583,27.75 L145.506667,27.75 L145.506667,14.2604167 C145.506667,12.802076 144.716744,12.0729167 143.136875,12.0729167 C141.557006,12.0729167 140.767083,12.802076 140.767083,14.2604167 L140.767083,27.75 L135.298333,27.75 Z M164.301667,8.79166667 L169.770417,8.79166667 L169.770417,11.34375 C169.770417,9.39929583 171.654078,8.42708333 175.421458,8.42708333 C179.188838,8.42708333 181.0725,10.0069286 181.0725,13.1666667 L181.0725,23.375 C181.0725,26.534738 179.188838,28.1145833 175.421458,28.1145833 C171.654078,28.1145833 169.770417,27.1423708 169.770417,25.1979167 L169.770417,34.6770833 L164.301667,34.6770833 L164.301667,8.79166667 Z M169.770417,22.28125 C169.770417,23.7395906 170.742629,24.46875 172.687083,24.46875 C174.631537,24.46875 175.60375,23.7395906 175.60375,22.28125 L175.60375,14.2604167 C175.60375,12.802076 174.631537,12.0729167 172.687083,12.0729167 C170.742629,12.0729167 169.770417,12.802076 169.770417,14.2604167 L169.770417,22.28125 Z M194.252917,25.78125 C194.252917,27.3368133 193.232094,28.1145833 191.190417,28.1145833 C186.669561,28.1145833 184.409167,26.534738 184.409167,23.375 L184.409167,20.8958333 C184.409167,17.6388726 186.961224,16.0104167 192.065417,16.0104167 C193.523757,16.0104167 194.252917,15.5486157 194.252917,14.625 L194.252917,13.8958333 C194.252917,12.6805495 193.523757,12.0729167 192.065417,12.0729167 C190.947355,12.0729167 190.388333,12.6805495 190.388333,13.8958333 L190.388333,14.625 L184.919583,14.625 L184.919583,13.1666667 C184.919583,10.0069286 187.301504,8.42708333 192.065417,8.42708333 C197.169609,8.42708333 199.721667,10.0069286 199.721667,13.1666667 L199.721667,25.1979167 C199.721667,26.8993141 200.207773,27.75 201.18,27.75 L195.71125,27.75 C194.739023,27.75 194.252917,27.0937566 194.252917,25.78125 Z M194.252917,18.5625 C194.252917,19.2916703 193.523757,19.65625 192.065417,19.65625 C190.607076,19.65625 189.877917,20.3124934 189.877917,21.625 L189.877917,22.6458333 C189.877917,23.8611172 190.607076,24.46875 192.065417,24.46875 C193.523757,24.46875 194.252917,23.5645924 194.252917,21.75625 L194.252917,18.5625 Z M203.058333,27.75 L203.058333,8.79166667 L208.527083,8.79166667 L208.527083,11.34375 C208.527083,9.39929583 210.082623,8.42708333 213.19375,8.42708333 C216.304877,8.42708333 217.860417,10.0069286 217.860417,13.1666667 L217.860417,15.3541667 L212.391667,15.3541667 L212.391667,13.8958333 C212.391667,12.6805495 211.747576,12.0729167 210.459375,12.0729167 C209.171174,12.0729167 208.527083,12.6805495 208.527083,13.8958333 L208.527083,27.75 L203.058333,27.75 Z M220.8325,13.1666667 C220.8325,10.0069286 223.627611,8.42708333 229.217917,8.42708333 C234.808222,8.42708333 237.603333,10.0069286 237.603333,13.1666667 L237.603333,20.09375 L226.30125,20.09375 L226.30125,22.6458333 C226.30125,23.8611172 227.273462,24.46875 229.217917,24.46875 C231.162371,24.46875 232.134583,23.8611172 232.134583,22.6458333 L232.134583,21.9166667 L237.603333,21.9166667 L237.603333,23.375 C237.603333,26.534738 234.808222,28.1145833 229.217917,28.1145833 C223.627611,28.1145833 220.8325,26.534738 220.8325,23.375 L220.8325,13.1666667 Z M226.30125,16.4479167 L232.134583,16.4479167 L232.134583,13.8958333 C232.134583,12.6805495 231.162371,12.0729167 229.217917,12.0729167 C227.273462,12.0729167 226.30125,12.6805495 226.30125,13.8958333 L226.30125,16.4479167 Z"
              id="compare" fill="#FFFFFF"></path>
        <path d="M103.6875,50.890625 C103.6875,52.8654613 102.01651,53.8528646 98.6744792,53.8528646 C95.3324486,53.8528646 93.6614583,52.8654613 93.6614583,50.890625 L93.6614583,44.5104167 C93.6614583,42.5355804 95.3324486,41.5481771 98.6744792,41.5481771 C102.01651,41.5481771 103.6875,42.5355804 103.6875,44.5104167 L103.6875,46.3333333 L101.408854,46.3333333 L101.408854,44.9661458 C101.408854,43.9027725 100.497405,43.3710938 98.6744792,43.3710938 C96.8515534,43.3710938 95.9401042,43.9027725 95.9401042,44.9661458 L95.9401042,50.4348958 C95.9401042,51.4982692 96.8515534,52.0299479 98.6744792,52.0299479 C100.497405,52.0299479 101.408854,51.4982692 101.408854,50.4348958 L101.408854,49.0677083 L103.6875,49.0677083 L103.6875,50.890625 Z M113.082812,44.9661458 C113.082812,43.9027725 112.171363,43.3710938 110.348437,43.3710938 C108.525512,43.3710938 107.614062,43.9027725 107.614062,44.9661458 L107.614062,50.4348958 C107.614062,51.4982692 108.525512,52.0299479 110.348437,52.0299479 C112.171363,52.0299479 113.082812,51.4982692 113.082812,50.4348958 L113.082812,44.9661458 Z M115.361458,50.890625 C115.361458,52.8654613 113.690468,53.8528646 110.348437,53.8528646 C107.006407,53.8528646 105.335417,52.8654613 105.335417,50.890625 L105.335417,44.5104167 C105.335417,42.5355804 107.006407,41.5481771 110.348437,41.5481771 C113.690468,41.5481771 115.361458,42.5355804 115.361458,44.5104167 L115.361458,50.890625 Z M117.009375,53.625 L117.009375,41.7760417 L119.288021,41.7760417 L119.288021,43.3710938 C119.288021,42.1558099 120.275424,41.5481771 122.25026,41.5481771 C124.225097,41.5481771 125.379599,42.0342833 125.713802,43.0065104 C126.145228,42.0342833 127.39999,41.5481771 129.478125,41.5481771 C131.55626,41.5481771 132.595312,42.5355804 132.595312,44.5104167 L132.595312,53.625 L130.316667,53.625 L130.316667,44.9661458 C130.316667,43.9027725 129.587507,43.3710938 128.129167,43.3710938 C126.670826,43.3710938 125.941667,43.9027725 125.941667,44.9661458 L125.941667,53.625 L123.663021,53.625 L123.663021,44.9661458 C123.663021,43.9027725 122.933861,43.3710938 121.475521,43.3710938 C120.01718,43.3710938 119.288021,43.9027725 119.288021,44.9661458 L119.288021,53.625 L117.009375,53.625 Z M136.521875,41.7760417 L136.521875,43.3710938 C136.521875,42.1558099 137.813095,41.5481771 140.395573,41.5481771 C142.978051,41.5481771 144.269271,42.5355804 144.269271,44.5104167 L144.269271,50.890625 C144.269271,52.8654613 142.978051,53.8528646 140.395573,53.8528646 C137.813095,53.8528646 136.521875,53.2452318 136.521875,52.0299479 L136.521875,57.9544271 L134.243229,57.9544271 L134.243229,41.7760417 L136.521875,41.7760417 Z M136.521875,50.4348958 C136.521875,51.4982692 137.433324,52.0299479 139.25625,52.0299479 C141.079176,52.0299479 141.990625,51.4982692 141.990625,50.4348958 L141.990625,44.9661458 C141.990625,43.9027725 141.079176,43.3710938 139.25625,43.3710938 C137.433324,43.3710938 136.521875,43.9027725 136.521875,44.9661458 L136.521875,50.4348958 Z M152.753125,52.0299479 C152.753125,53.2452318 151.811294,53.8528646 149.927604,53.8528646 C147.25398,53.8528646 145.917187,52.8654613 145.917187,50.890625 L145.917187,49.3411458 C145.917187,47.4574559 147.43627,46.515625 150.474479,46.515625 C151.993584,46.515625 152.753125,46.1510453 152.753125,45.421875 L152.753125,44.9661458 C152.753125,43.9027725 151.993584,43.3710938 150.474479,43.3710938 C149.168049,43.3710938 148.514844,43.9027725 148.514844,44.9661458 L148.514844,45.8776042 L146.236198,45.8776042 L146.236198,44.5104167 C146.236198,42.5355804 147.648944,41.5481771 150.474479,41.5481771 C153.512689,41.5481771 155.031771,42.5355804 155.031771,44.5104167 L155.031771,52.0299479 C155.031771,53.0933213 155.335587,53.625 155.943229,53.625 L153.664583,53.625 C153.056941,53.625 152.753125,53.0933213 152.753125,52.0299479 Z M152.753125,47.5182292 C152.753125,48.0651069 151.993584,48.3385417 150.474479,48.3385417 C148.955374,48.3385417 148.195833,48.8246479 148.195833,49.796875 L148.195833,50.4348958 C148.195833,51.4982692 148.955374,52.0299479 150.474479,52.0299479 C151.993584,52.0299479 152.753125,51.3129412 152.753125,49.8789062 L152.753125,47.5182292 Z M156.679687,41.7760417 L158.958333,41.7760417 L158.958333,43.3710938 C158.958333,42.1558099 160.249553,41.5481771 162.832031,41.5481771 C165.414509,41.5481771 166.705729,42.5355804 166.705729,44.5104167 L166.705729,53.625 L164.427083,53.625 L164.427083,44.9661458 C164.427083,43.9027725 163.515634,43.3710938 161.692708,43.3710938 C159.869783,43.3710938 158.958333,43.9027725 158.958333,44.9661458 L158.958333,53.625 L156.679687,53.625 L156.679687,41.7760417 Z M170.632292,41.7760417 L170.632292,53.625 L168.353646,53.625 L168.353646,41.7760417 L170.632292,41.7760417 Z M170.814583,38.2486979 C170.814583,39.0811674 170.37405,39.4973958 169.492969,39.4973958 C168.611888,39.4973958 168.171354,39.0796483 168.171354,38.2441406 C168.171354,37.408633 168.611888,36.9908854 169.492969,36.9908854 C170.37405,36.9908854 170.814583,37.4101521 170.814583,38.2486979 Z M172.280208,44.5104167 C172.280208,42.5355804 173.951199,41.5481771 177.293229,41.5481771 C180.63526,41.5481771 182.30625,42.5355804 182.30625,44.5104167 L182.30625,48.6119792 L174.558854,48.6119792 L174.558854,50.4348958 C174.558854,51.4982692 175.470303,52.0299479 177.293229,52.0299479 C179.116155,52.0299479 180.027604,51.4982692 180.027604,50.4348958 L180.027604,49.5234375 L182.30625,49.5234375 L182.30625,50.890625 C182.30625,52.8654613 180.63526,53.8528646 177.293229,53.8528646 C173.951199,53.8528646 172.280208,52.8654613 172.280208,50.890625 L172.280208,44.5104167 Z M180.027604,46.7890625 L180.027604,44.9661458 C180.027604,43.9027725 179.116155,43.3710938 177.293229,43.3710938 C175.470303,43.3710938 174.558854,43.9027725 174.558854,44.9661458 L174.558854,46.7890625 L180.027604,46.7890625 Z M186.460677,45.4947917 C186.460677,46.1328157 187.296172,46.4882809 188.967187,46.5611979 C192.309218,46.7009556 193.980208,47.6124048 193.980208,49.2955729 L193.980208,50.890625 C193.980208,52.8654613 192.309218,53.8528646 188.967187,53.8528646 C185.625157,53.8528646 183.954167,52.8654613 183.954167,50.890625 L183.954167,49.5234375 L186.232812,49.5234375 L186.232812,50.4348958 C186.232812,51.4982692 187.144262,52.0299479 188.967187,52.0299479 C190.790113,52.0299479 191.701562,51.4982692 191.701562,50.4348958 L191.701562,49.7513021 C191.701562,49.1011252 190.790113,48.7213547 188.967187,48.6119792 C185.777067,48.4843744 184.182031,47.496971 184.182031,45.6497396 L184.182031,44.5104167 C184.182031,42.5355804 185.777067,41.5481771 188.967187,41.5481771 C192.157308,41.5481771 193.752344,42.5355804 193.752344,44.5104167 L193.752344,45.8776042 L191.473698,45.8776042 L191.473698,44.9661458 C191.473698,43.9027725 190.638203,43.3710938 188.967187,43.3710938 C187.296172,43.3710938 186.460677,43.9027725 186.460677,44.9661458 L186.460677,45.4947917 Z M196.07474,52.5039062 C196.07474,51.7261246 196.448434,51.3372396 197.195833,51.3372396 C197.943233,51.3372396 198.316927,51.7261246 198.316927,52.5039062 C198.316927,53.2756115 197.943233,53.6614583 197.195833,53.6614583 C196.448434,53.6614583 196.07474,53.2756115 196.07474,52.5039062 Z M210.455729,50.890625 C210.455729,52.8654613 208.784739,53.8528646 205.442708,53.8528646 C202.100678,53.8528646 200.429687,52.8654613 200.429687,50.890625 L200.429687,44.5104167 C200.429687,42.5355804 202.100678,41.5481771 205.442708,41.5481771 C208.784739,41.5481771 210.455729,42.5355804 210.455729,44.5104167 L210.455729,46.3333333 L208.177083,46.3333333 L208.177083,44.9661458 C208.177083,43.9027725 207.265634,43.3710938 205.442708,43.3710938 C203.619783,43.3710938 202.708333,43.9027725 202.708333,44.9661458 L202.708333,50.4348958 C202.708333,51.4982692 203.619783,52.0299479 205.442708,52.0299479 C207.265634,52.0299479 208.177083,51.4982692 208.177083,50.4348958 L208.177083,49.0677083 L210.455729,49.0677083 L210.455729,50.890625 Z M219.851042,44.9661458 C219.851042,43.9027725 218.939592,43.3710938 217.116667,43.3710938 C215.293741,43.3710938 214.382292,43.9027725 214.382292,44.9661458 L214.382292,50.4348958 C214.382292,51.4982692 215.293741,52.0299479 217.116667,52.0299479 C218.939592,52.0299479 219.851042,51.4982692 219.851042,50.4348958 L219.851042,44.9661458 Z M222.129687,50.890625 C222.129687,52.8654613 220.458697,53.8528646 217.116667,53.8528646 C213.774636,53.8528646 212.103646,52.8654613 212.103646,50.890625 L212.103646,44.5104167 C212.103646,42.5355804 213.774636,41.5481771 217.116667,41.5481771 C220.458697,41.5481771 222.129687,42.5355804 222.129687,44.5104167 L222.129687,50.890625 Z M224.224219,52.5039062 C224.224219,51.7261246 224.597913,51.3372396 225.345312,51.3372396 C226.092712,51.3372396 226.466406,51.7261246 226.466406,52.5039062 C226.466406,53.2756115 226.092712,53.6614583 225.345312,53.6614583 C224.597913,53.6614583 224.224219,53.2756115 224.224219,52.5039062 Z M238.605208,53.625 L236.326562,53.625 L236.326562,52.0299479 C236.326562,53.2452318 235.035343,53.8528646 232.452865,53.8528646 C229.870386,53.8528646 228.579167,52.8654613 228.579167,50.890625 L228.579167,41.7760417 L230.857812,41.7760417 L230.857812,50.4348958 C230.857812,51.4982692 231.769262,52.0299479 233.592187,52.0299479 C235.415113,52.0299479 236.326562,51.4982692 236.326562,50.4348958 L236.326562,41.7760417 L238.605208,41.7760417 L238.605208,53.625 Z M240.253125,53.625 L240.253125,36.7630208 L242.531771,36.7630208 L242.531771,47.7369792 L246.742708,41.7760417 L249.376823,41.7760417 L245.694531,47.1263021 L249.531771,53.625 L246.915885,53.625 L244.245312,49.2135417 L242.531771,51.6289062 L242.531771,53.625 L240.253125,53.625 Z"
              id="companies.co.uk" fill="#FFFFFF"></path>
    </g>
</svg>