<?xml version="1.0" encoding="UTF-8"?>
<svg width="195px" height="37px" viewBox="0 0 195 37" version="1.1" xmlns="http://www.w3.org/2000/svg"
>
    <!-- Generator: Sketch 48.2 (47327) - http://www.bohemiancoding.com/sketch -->
    <title>compare</title>
    <desc>Created with Sketch.</desc>
    <defs></defs>
    <g id="Landing-Page-Logo" stroke="none" stroke-width="1" fill="none" fill-rule="evenodd"
       transform="translate(-80.000000, -4.000000)">
        <g id="logo" fill="#1D71B8">
            <path d="M103,21 L103,25 C103,29.333355 99.166705,31.5 91.5,31.5 C83.833295,31.5 80,29.333355 80,25 L80,11 C80,6.666645 83.833295,4.5 91.5,4.5 C99.166705,4.5 103,6.666645 103,11 L103,15 L95,15 L95,12 C95,10.333325 93.833345,9.5 91.5,9.5 C88.83332,9.5 87.5,10.333325 87.5,12 L87.5,24 C87.5,25.666675 88.83332,26.5 91.5,26.5 C93.833345,26.5 95,25.666675 95,24 L95,21 L103,21 Z M122.98,24 L122.98,12 C122.98,10.333325 121.64668,9.5 118.98,9.5 C116.31332,9.5 114.98,10.333325 114.98,12 L114.98,24 C114.98,25.666675 116.31332,26.5 118.98,26.5 C121.64668,26.5 122.98,25.666675 122.98,24 Z M130.48,11 L130.48,25 C130.48,29.333355 126.646705,31.5 118.98,31.5 C111.313295,31.5 107.48,29.333355 107.48,25 L107.48,11 C107.48,6.666645 111.313295,4.5 118.98,4.5 C126.646705,4.5 130.48,6.666645 130.48,11 Z M134.96,31 L134.96,5 L142.46,5 L142.46,8.5 C142.46,5.83332 144.40998,4.5 148.31,4.5 C152.210019,4.5 154.526663,5.566656 155.26,7.7 C156.206671,5.566656 158.926644,4.5 163.42,4.5 C167.913356,4.5 170.16,6.666645 170.16,11 L170.16,31 L162.66,31 L162.66,12.5 C162.66,10.49999 161.593344,9.5 159.46,9.5 C157.326656,9.5 156.26,10.49999 156.26,12.5 L156.26,31 L148.96,31 L148.96,12.5 C148.96,10.49999 147.876677,9.5 145.71,9.5 C143.543322,9.5 142.46,10.49999 142.46,12.5 L142.46,31 L134.96,31 Z M174.64,5 L182.14,5 L182.14,8.5 C182.14,5.83332 184.723307,4.5 189.89,4.5 C195.056692,4.5 197.64,6.666645 197.64,11 L197.64,25 C197.64,29.333355 195.056692,31.5 189.89,31.5 C184.723307,31.5 182.14,30.16668 182.14,27.5 L182.14,40.5 L174.64,40.5 L174.64,5 Z M182.14,23.5 C182.14,25.50001 183.47332,26.5 186.14,26.5 C188.80668,26.5 190.14,25.50001 190.14,23.5 L190.14,12.5 C190.14,10.49999 188.80668,9.5 186.14,9.5 C183.47332,9.5 182.14,10.49999 182.14,12.5 L182.14,23.5 Z M215.62,28.3 C215.62,30.433344 214.220014,31.5 211.42,31.5 C205.219969,31.5 202.12,29.333355 202.12,25 L202.12,21.6 C202.12,17.133311 205.619965,14.9 212.62,14.9 C214.62001,14.9 215.62,14.266673 215.62,13 L215.62,12 C215.62,10.333325 214.62001,9.5 212.62,9.5 C211.086659,9.5 210.32,10.333325 210.32,12 L210.32,13 L202.82,13 L202.82,11 C202.82,6.666645 206.086634,4.5 212.62,4.5 C219.620035,4.5 223.12,6.666645 223.12,11 L223.12,27.5 C223.12,29.833345 223.78666,31 225.12,31 L217.62,31 C216.28666,31 215.62,30.100009 215.62,28.3 Z M215.62,18.4 C215.62,19.400005 214.62001,19.9 212.62,19.9 C210.61999,19.9 209.62,20.799991 209.62,22.6 L209.62,24 C209.62,25.666675 210.61999,26.5 212.62,26.5 C214.62001,26.5 215.62,25.2600124 215.62,22.78 L215.62,18.4 Z M227.6,31 L227.6,5 L235.1,5 L235.1,8.5 C235.1,5.83332 237.233312,4.5 241.5,4.5 C245.766688,4.5 247.9,6.666645 247.9,11 L247.9,14 L240.4,14 L240.4,12 C240.4,10.333325 239.516675,9.5 237.75,9.5 C235.983324,9.5 235.1,10.333325 235.1,12 L235.1,31 L227.6,31 Z M251.88,11 C251.88,6.666645 255.713295,4.5 263.38,4.5 C271.046705,4.5 274.88,6.666645 274.88,11 L274.88,20.5 L259.38,20.5 L259.38,24 C259.38,25.666675 260.71332,26.5 263.38,26.5 C266.04668,26.5 267.38,25.666675 267.38,24 L267.38,23 L274.88,23 L274.88,25 C274.88,29.333355 271.046705,31.5 263.38,31.5 C255.713295,31.5 251.88,29.333355 251.88,25 L251.88,11 Z M259.38,15.5 L267.38,15.5 L267.38,12 C267.38,10.333325 266.04668,9.5 263.38,9.5 C260.71332,9.5 259.38,10.333325 259.38,12 L259.38,15.5 Z"
                  id="compare"></path>
        </g>
    </g>
</svg>