<?xml version="1.0" encoding="UTF-8"?>
<svg width="293px" height="75px" viewBox="0 0 293 75" version="1.1" xmlns="http://www.w3.org/2000/svg"
>
    <!-- Generator: Sketch 48.2 (47327) - http://www.bohemiancoding.com/sketch -->
    <title>logo-full</title>
    <desc>Created with Sketch.</desc>
    <defs></defs>
    <g id="Symbols" stroke="none" stroke-width="1" fill="none" fill-rule="evenodd">
        <g id="logo-full">
            <g id="icon" transform="translate(3.000000, 2.000000)">
                <path d="M14,0 L60.3690139,0 L51,15 L18,15 C15.790861,15 14,16.790861 14,19 L14,49 C14,51.209139 15.790861,53 18,53 L39.6019766,53 L28,71.5676101 L28,68 L14,68 C6.2680135,68 9.82867945e-15,61.7319865 8.8817842e-15,54 L-1.77635684e-15,14 C-2.72325209e-15,6.2680135 6.2680135,4.97305656e-15 14,3.55271368e-15 Z"
                      id="Rectangle-3" fill="#326CB9"></path>
                <path d="M64.0097271,7.10542736e-15 L78,0 C85.7319865,-1.42034288e-15 92,6.2680135 92,14 L92,54 C92,61.7319865 85.7319865,68 78,68 L36,68 L31.7520463,71.416812 L43.261435,53 L73,53 C75.209139,53 77,51.209139 77,49 L77,19 C77,16.790861 75.209139,15 73,15 L54.6399994,15 L64.0097271,7.10542736e-15 Z"
                      id="Rectangle-3-Copy" fill="#95C121"></path>
                <rect id="Rectangle-2" fill="#326CB9" x="23" y="23" width="45" height="3"></rect>
                <rect id="Rectangle-2-Copy" fill="#326CB9" x="23" y="32.5" width="45" height="3"></rect>
                <rect id="Rectangle-2-Copy-2" fill="#326CB9" x="23" y="42" width="45" height="3"></rect>
            </g>
            <path d="M130.833333,25.6666667 L130.833333,29 C130.833333,32.6111292 127.638921,34.4166667 121.25,34.4166667 C114.861079,34.4166667 111.666667,32.6111292 111.666667,29 L111.666667,17.3333333 C111.666667,13.7222042 114.861079,11.9166667 121.25,11.9166667 C127.638921,11.9166667 130.833333,13.7222042 130.833333,17.3333333 L130.833333,20.6666667 L124.166667,20.6666667 L124.166667,18.1666667 C124.166667,16.7777708 123.194454,16.0833333 121.25,16.0833333 C119.027767,16.0833333 117.916667,16.7777708 117.916667,18.1666667 L117.916667,28.1666667 C117.916667,29.5555625 119.027767,30.25 121.25,30.25 C123.194454,30.25 124.166667,29.5555625 124.166667,28.1666667 L124.166667,25.6666667 L130.833333,25.6666667 Z M147.563333,28.1666667 L147.563333,18.1666667 C147.563333,16.7777708 146.452233,16.0833333 144.23,16.0833333 C142.007767,16.0833333 140.896667,16.7777708 140.896667,18.1666667 L140.896667,28.1666667 C140.896667,29.5555625 142.007767,30.25 144.23,30.25 C146.452233,30.25 147.563333,29.5555625 147.563333,28.1666667 Z M153.813333,17.3333333 L153.813333,29 C153.813333,32.6111292 150.618921,34.4166667 144.23,34.4166667 C137.841079,34.4166667 134.646667,32.6111292 134.646667,29 L134.646667,17.3333333 C134.646667,13.7222042 137.841079,11.9166667 144.23,11.9166667 C150.618921,11.9166667 153.813333,13.7222042 153.813333,17.3333333 Z M157.626667,34 L157.626667,12.3333333 L163.876667,12.3333333 L163.876667,15.25 C163.876667,13.0277667 165.50165,11.9166667 168.751667,11.9166667 C172.001683,11.9166667 173.932219,12.8055467 174.543333,14.5833333 C175.332226,12.8055467 177.59887,11.9166667 181.343333,11.9166667 C185.087796,11.9166667 186.96,13.7222042 186.96,17.3333333 L186.96,34 L180.71,34 L180.71,18.5833333 C180.71,16.9166583 179.82112,16.0833333 178.043333,16.0833333 C176.265547,16.0833333 175.376667,16.9166583 175.376667,18.5833333 L175.376667,34 L169.293333,34 L169.293333,18.5833333 C169.293333,16.9166583 168.390565,16.0833333 166.585,16.0833333 C164.779435,16.0833333 163.876667,16.9166583 163.876667,18.5833333 L163.876667,34 L157.626667,34 Z M190.773333,12.3333333 L197.023333,12.3333333 L197.023333,15.25 C197.023333,13.0277667 199.17609,11.9166667 203.481667,11.9166667 C207.787244,11.9166667 209.94,13.7222042 209.94,17.3333333 L209.94,29 C209.94,32.6111292 207.787244,34.4166667 203.481667,34.4166667 C199.17609,34.4166667 197.023333,33.3055667 197.023333,31.0833333 L197.023333,41.9166667 L190.773333,41.9166667 L190.773333,12.3333333 Z M197.023333,27.75 C197.023333,29.416675 198.134433,30.25 200.356667,30.25 C202.5789,30.25 203.69,29.416675 203.69,27.75 L203.69,18.5833333 C203.69,16.9166583 202.5789,16.0833333 200.356667,16.0833333 C198.134433,16.0833333 197.023333,16.9166583 197.023333,18.5833333 L197.023333,27.75 Z M225.003333,31.75 C225.003333,33.5277867 223.836678,34.4166667 221.503333,34.4166667 C216.336641,34.4166667 213.753333,32.6111292 213.753333,29 L213.753333,26.1666667 C213.753333,22.4444258 216.669971,20.5833333 222.503333,20.5833333 C224.170008,20.5833333 225.003333,20.0555608 225.003333,19 L225.003333,18.1666667 C225.003333,16.7777708 224.170008,16.0833333 222.503333,16.0833333 C221.225549,16.0833333 220.586667,16.7777708 220.586667,18.1666667 L220.586667,19 L214.336667,19 L214.336667,17.3333333 C214.336667,13.7222042 217.058862,11.9166667 222.503333,11.9166667 C228.336696,11.9166667 231.253333,13.7222042 231.253333,17.3333333 L231.253333,31.0833333 C231.253333,33.0277875 231.808883,34 232.92,34 L226.67,34 C225.558883,34 225.003333,33.2500075 225.003333,31.75 Z M225.003333,23.5 C225.003333,24.3333375 224.170008,24.75 222.503333,24.75 C220.836658,24.75 220.003333,25.4999925 220.003333,27 L220.003333,28.1666667 C220.003333,29.5555625 220.836658,30.25 222.503333,30.25 C224.170008,30.25 225.003333,29.216677 225.003333,27.15 L225.003333,23.5 Z M235.066667,34 L235.066667,12.3333333 L241.316667,12.3333333 L241.316667,15.25 C241.316667,13.0277667 243.094427,11.9166667 246.65,11.9166667 C250.205573,11.9166667 251.983333,13.7222042 251.983333,17.3333333 L251.983333,19.8333333 L245.733333,19.8333333 L245.733333,18.1666667 C245.733333,16.7777708 244.99723,16.0833333 243.525,16.0833333 C242.05277,16.0833333 241.316667,16.7777708 241.316667,18.1666667 L241.316667,34 L235.066667,34 Z M255.38,17.3333333 C255.38,13.7222042 258.574412,11.9166667 264.963333,11.9166667 C271.352254,11.9166667 274.546667,13.7222042 274.546667,17.3333333 L274.546667,25.25 L261.63,25.25 L261.63,28.1666667 C261.63,29.5555625 262.7411,30.25 264.963333,30.25 C267.185567,30.25 268.296667,29.5555625 268.296667,28.1666667 L268.296667,27.3333333 L274.546667,27.3333333 L274.546667,29 C274.546667,32.6111292 271.352254,34.4166667 264.963333,34.4166667 C258.574412,34.4166667 255.38,32.6111292 255.38,29 L255.38,17.3333333 Z M261.63,21.0833333 L268.296667,21.0833333 L268.296667,18.1666667 C268.296667,16.7777708 267.185567,16.0833333 264.963333,16.0833333 C262.7411,16.0833333 261.63,16.7777708 261.63,18.1666667 L261.63,21.0833333 Z"
                  id="compare" fill="#326CB9"></path>
            <path d="M121.5,60.875 C121.5,63.1319557 119.590297,64.2604167 115.770833,64.2604167 C111.95137,64.2604167 110.041667,63.1319557 110.041667,60.875 L110.041667,53.5833333 C110.041667,51.3263776 111.95137,50.1979167 115.770833,50.1979167 C119.590297,50.1979167 121.5,51.3263776 121.5,53.5833333 L121.5,55.6666667 L118.895833,55.6666667 L118.895833,54.1041667 C118.895833,52.8888828 117.854177,52.28125 115.770833,52.28125 C113.68749,52.28125 112.645833,52.8888828 112.645833,54.1041667 L112.645833,60.3541667 C112.645833,61.5694505 113.68749,62.1770833 115.770833,62.1770833 C117.854177,62.1770833 118.895833,61.5694505 118.895833,60.3541667 L118.895833,58.7916667 L121.5,58.7916667 L121.5,60.875 Z M132.2375,54.1041667 C132.2375,52.8888828 131.195844,52.28125 129.1125,52.28125 C127.029156,52.28125 125.9875,52.8888828 125.9875,54.1041667 L125.9875,60.3541667 C125.9875,61.5694505 127.029156,62.1770833 129.1125,62.1770833 C131.195844,62.1770833 132.2375,61.5694505 132.2375,60.3541667 L132.2375,54.1041667 Z M134.841667,60.875 C134.841667,63.1319557 132.931964,64.2604167 129.1125,64.2604167 C125.293036,64.2604167 123.383333,63.1319557 123.383333,60.875 L123.383333,53.5833333 C123.383333,51.3263776 125.293036,50.1979167 129.1125,50.1979167 C132.931964,50.1979167 134.841667,51.3263776 134.841667,53.5833333 L134.841667,60.875 Z M136.725,64 L136.725,50.4583333 L139.329167,50.4583333 L139.329167,52.28125 C139.329167,50.8923542 140.457628,50.1979167 142.714583,50.1979167 C144.971539,50.1979167 146.29097,50.7534667 146.672917,51.8645833 C147.165975,50.7534667 148.599988,50.1979167 150.975,50.1979167 C153.350012,50.1979167 154.5375,51.3263776 154.5375,53.5833333 L154.5375,64 L151.933333,64 L151.933333,54.1041667 C151.933333,52.8888828 151.100008,52.28125 149.433333,52.28125 C147.766658,52.28125 146.933333,52.8888828 146.933333,54.1041667 L146.933333,64 L144.329167,64 L144.329167,54.1041667 C144.329167,52.8888828 143.495842,52.28125 141.829167,52.28125 C140.162492,52.28125 139.329167,52.8888828 139.329167,54.1041667 L139.329167,64 L136.725,64 Z M159.025,50.4583333 L159.025,52.28125 C159.025,50.8923542 160.50068,50.1979167 163.452083,50.1979167 C166.403487,50.1979167 167.879167,51.3263776 167.879167,53.5833333 L167.879167,60.875 C167.879167,63.1319557 166.403487,64.2604167 163.452083,64.2604167 C160.50068,64.2604167 159.025,63.5659792 159.025,62.1770833 L159.025,68.9479167 L156.420833,68.9479167 L156.420833,50.4583333 L159.025,50.4583333 Z M159.025,60.3541667 C159.025,61.5694505 160.066656,62.1770833 162.15,62.1770833 C164.233344,62.1770833 165.275,61.5694505 165.275,60.3541667 L165.275,54.1041667 C165.275,52.8888828 164.233344,52.28125 162.15,52.28125 C160.066656,52.28125 159.025,52.8888828 159.025,54.1041667 L159.025,60.3541667 Z M177.575,62.1770833 C177.575,63.5659792 176.498622,64.2604167 174.345833,64.2604167 C171.290262,64.2604167 169.7625,63.1319557 169.7625,60.875 L169.7625,59.1041667 C169.7625,56.9513781 171.498594,55.875 174.970833,55.875 C176.706953,55.875 177.575,55.4583375 177.575,54.625 L177.575,54.1041667 C177.575,52.8888828 176.706953,52.28125 174.970833,52.28125 C173.47777,52.28125 172.73125,52.8888828 172.73125,54.1041667 L172.73125,55.1458333 L170.127083,55.1458333 L170.127083,53.5833333 C170.127083,51.3263776 171.741651,50.1979167 174.970833,50.1979167 C178.443073,50.1979167 180.179167,51.3263776 180.179167,53.5833333 L180.179167,62.1770833 C180.179167,63.3923672 180.526385,64 181.220833,64 L178.616667,64 C177.922219,64 177.575,63.3923672 177.575,62.1770833 Z M177.575,57.0208333 C177.575,57.6458365 176.706953,57.9583333 174.970833,57.9583333 C173.234714,57.9583333 172.366667,58.5138833 172.366667,59.625 L172.366667,60.3541667 C172.366667,61.5694505 173.234714,62.1770833 174.970833,62.1770833 C176.706953,62.1770833 177.575,61.3576471 177.575,59.71875 L177.575,57.0208333 Z M182.0625,50.4583333 L184.666667,50.4583333 L184.666667,52.28125 C184.666667,50.8923542 186.142346,50.1979167 189.09375,50.1979167 C192.045154,50.1979167 193.520833,51.3263776 193.520833,53.5833333 L193.520833,64 L190.916667,64 L190.916667,54.1041667 C190.916667,52.8888828 189.87501,52.28125 187.791667,52.28125 C185.708323,52.28125 184.666667,52.8888828 184.666667,54.1041667 L184.666667,64 L182.0625,64 L182.0625,50.4583333 Z M198.008333,50.4583333 L198.008333,64 L195.404167,64 L195.404167,50.4583333 L198.008333,50.4583333 Z M198.216667,46.4270833 C198.216667,47.378477 197.713199,47.8541667 196.70625,47.8541667 C195.699301,47.8541667 195.195833,47.3767409 195.195833,46.421875 C195.195833,45.4670091 195.699301,44.9895833 196.70625,44.9895833 C197.713199,44.9895833 198.216667,45.4687452 198.216667,46.4270833 Z M199.891667,53.5833333 C199.891667,51.3263776 201.80137,50.1979167 205.620833,50.1979167 C209.440297,50.1979167 211.35,51.3263776 211.35,53.5833333 L211.35,58.2708333 L202.495833,58.2708333 L202.495833,60.3541667 C202.495833,61.5694505 203.53749,62.1770833 205.620833,62.1770833 C207.704177,62.1770833 208.745833,61.5694505 208.745833,60.3541667 L208.745833,59.3125 L211.35,59.3125 L211.35,60.875 C211.35,63.1319557 209.440297,64.2604167 205.620833,64.2604167 C201.80137,64.2604167 199.891667,63.1319557 199.891667,60.875 L199.891667,53.5833333 Z M208.745833,56.1875 L208.745833,54.1041667 C208.745833,52.8888828 207.704177,52.28125 205.620833,52.28125 C203.53749,52.28125 202.495833,52.8888828 202.495833,54.1041667 L202.495833,56.1875 L208.745833,56.1875 Z M216.097917,54.7083333 C216.097917,55.4375036 217.052768,55.8437496 218.9625,55.9270833 C222.781964,56.0868064 224.691667,57.1284626 224.691667,59.0520833 L224.691667,60.875 C224.691667,63.1319557 222.781964,64.2604167 218.9625,64.2604167 C215.143036,64.2604167 213.233333,63.1319557 213.233333,60.875 L213.233333,59.3125 L215.8375,59.3125 L215.8375,60.3541667 C215.8375,61.5694505 216.879156,62.1770833 218.9625,62.1770833 C221.045844,62.1770833 222.0875,61.5694505 222.0875,60.3541667 L222.0875,59.5729167 C222.0875,58.8298574 221.045844,58.395834 218.9625,58.2708333 C215.316648,58.1249993 213.49375,56.9965383 213.49375,54.8854167 L213.49375,53.5833333 C213.49375,51.3263776 215.316648,50.1979167 218.9625,50.1979167 C222.608352,50.1979167 224.43125,51.3263776 224.43125,53.5833333 L224.43125,55.1458333 L221.827083,55.1458333 L221.827083,54.1041667 C221.827083,52.8888828 220.872232,52.28125 218.9625,52.28125 C217.052768,52.28125 216.097917,52.8888828 216.097917,54.1041667 L216.097917,54.7083333 Z M227.085417,62.71875 C227.085417,61.8298567 227.512496,61.3854167 228.366667,61.3854167 C229.220838,61.3854167 229.647917,61.8298567 229.647917,62.71875 C229.647917,63.6006989 229.220838,64.0416667 228.366667,64.0416667 C227.512496,64.0416667 227.085417,63.6006989 227.085417,62.71875 Z M243.520833,60.875 C243.520833,63.1319557 241.61113,64.2604167 237.791667,64.2604167 C233.972203,64.2604167 232.0625,63.1319557 232.0625,60.875 L232.0625,53.5833333 C232.0625,51.3263776 233.972203,50.1979167 237.791667,50.1979167 C241.61113,50.1979167 243.520833,51.3263776 243.520833,53.5833333 L243.520833,55.6666667 L240.916667,55.6666667 L240.916667,54.1041667 C240.916667,52.8888828 239.87501,52.28125 237.791667,52.28125 C235.708323,52.28125 234.666667,52.8888828 234.666667,54.1041667 L234.666667,60.3541667 C234.666667,61.5694505 235.708323,62.1770833 237.791667,62.1770833 C239.87501,62.1770833 240.916667,61.5694505 240.916667,60.3541667 L240.916667,58.7916667 L243.520833,58.7916667 L243.520833,60.875 Z M254.258333,54.1041667 C254.258333,52.8888828 253.216677,52.28125 251.133333,52.28125 C249.04999,52.28125 248.008333,52.8888828 248.008333,54.1041667 L248.008333,60.3541667 C248.008333,61.5694505 249.04999,62.1770833 251.133333,62.1770833 C253.216677,62.1770833 254.258333,61.5694505 254.258333,60.3541667 L254.258333,54.1041667 Z M256.8625,60.875 C256.8625,63.1319557 254.952797,64.2604167 251.133333,64.2604167 C247.31387,64.2604167 245.404167,63.1319557 245.404167,60.875 L245.404167,53.5833333 C245.404167,51.3263776 247.31387,50.1979167 251.133333,50.1979167 C254.952797,50.1979167 256.8625,51.3263776 256.8625,53.5833333 L256.8625,60.875 Z M259.25625,62.71875 C259.25625,61.8298567 259.683329,61.3854167 260.5375,61.3854167 C261.391671,61.3854167 261.81875,61.8298567 261.81875,62.71875 C261.81875,63.6006989 261.391671,64.0416667 260.5375,64.0416667 C259.683329,64.0416667 259.25625,63.6006989 259.25625,62.71875 Z M275.691667,64 L273.0875,64 L273.0875,62.1770833 C273.0875,63.5659792 271.61182,64.2604167 268.660417,64.2604167 C265.709013,64.2604167 264.233333,63.1319557 264.233333,60.875 L264.233333,50.4583333 L266.8375,50.4583333 L266.8375,60.3541667 C266.8375,61.5694505 267.879156,62.1770833 269.9625,62.1770833 C272.045844,62.1770833 273.0875,61.5694505 273.0875,60.3541667 L273.0875,50.4583333 L275.691667,50.4583333 L275.691667,64 Z M277.575,64 L277.575,44.7291667 L280.179167,44.7291667 L280.179167,57.2708333 L284.991667,50.4583333 L288.002083,50.4583333 L283.79375,56.5729167 L288.179167,64 L285.189583,64 L282.1375,58.9583333 L280.179167,61.71875 L280.179167,64 L277.575,64 Z"
                  id="companies.co.uk" fill="#326CB9"></path>
        </g>
    </g>
</svg>