<svg xmlns="http://www.w3.org/2000/svg" width="69" height="54" viewBox="0 0 69 54">
    <g fill="none" fill-rule="evenodd">
        <path fill="#1D71B8"
              d="M10.5,0 L45.2767604,0 L38.25,11.25 L13.5,11.25 C11.8431458,11.25 10.5,12.5931458 10.5,14.25 L10.5,36.75 C10.5,38.4068542 11.8431458,39.75 13.5,39.75 L29.7014824,39.75 L21,53.6757076 L21,51 L10.5,51 C4.70101013,51 6.03924196e-15,46.2989899 5.32907052e-15,40.5 L1.77635684e-15,10.5 C1.0661854e-15,4.70101013 4.70101013,2.841614e-15 10.5,1.77635684e-15 Z"/>
        <path fill="#95C717"
              d="M48.0072954,5.32907052e-15 L58.5,1.77635684e-15 C64.2989899,7.11099681e-16 69,4.70101013 69,10.5 L69,40.5 C69,46.2989899 64.2989899,51 58.5,51 L27,51 L23.8140347,53.562609 L32.4460763,39.75 L54.75,39.75 C56.4068542,39.75 57.75,38.4068542 57.75,36.75 L57.75,14.25 C57.75,12.5931458 56.4068542,11.25 54.75,11.25 L40.9799995,11.25 L48.0072954,5.32907052e-15 Z"/>
        <rect width="33.75" height="2.25" x="17.25" y="17.25" fill="#1D71B8"/>
        <rect width="33.75" height="2.25" x="17.25" y="24.375" fill="#1D71B8"/>
        <rect width="33.75" height="2.25" x="17.25" y="31.5" fill="#1D71B8"/>
    </g>
</svg>
